<svg width="18" height="18" viewBox="0 0 18 18" fill="none" xmlns="http://www.w3.org/2000/svg">
<path d="M2.25 7.5H15.75V4.5C15.75 4.10218 15.592 3.72064 15.3107 3.43934C15.0294 3.15804 14.6478 3 14.25 3H3.75C3.35218 3 2.97064 3.15804 2.68934 3.43934C2.40804 3.72064 2.25 4.10218 2.25 4.5V15C2.25 15.3978 2.40804 15.7794 2.68934 16.0607C2.97064 16.342 3.35218 16.5 3.75 16.5H9" stroke="#2E3238" stroke-width="1.5" stroke-linecap="round" stroke-linejoin="round"/>
<path d="M6 1.5V4.5" stroke="#2E3238" stroke-width="1.5" stroke-linecap="round" stroke-linejoin="round"/>
<path d="M12 1.5V4.5" stroke="#2E3238" stroke-width="1.5" stroke-linecap="round" stroke-linejoin="round"/>
<path d="M15.9674 11.0248C15.7118 10.7705 15.3866 10.5977 15.0328 10.5282C14.679 10.4588 14.3126 10.4959 13.9799 10.6348C13.7549 10.7248 13.5524 10.8598 13.3799 11.0323L13.1249 11.2873L12.8624 11.0323C12.6077 10.7767 12.2828 10.6025 11.929 10.5317C11.5752 10.461 11.2083 10.4968 10.8749 10.6348C10.6499 10.7248 10.4549 10.8598 10.2824 11.0323C9.56988 11.7373 9.53238 12.9298 10.4324 13.8373L13.1249 16.4998L15.8249 13.8373C16.7249 12.9298 16.6799 11.7373 15.9674 11.0323V11.0248Z" stroke="#2E3238" stroke-width="1.5" stroke-linecap="round" stroke-linejoin="round"/>
</svg>
