<svg width="104" height="105" viewBox="0 0 104 105" fill="none" xmlns="http://www.w3.org/2000/svg">
<path d="M0 34.5C0 15.7223 15.2223 0.5 34 0.5C35.0281 0.5 35.8616 1.33347 35.8616 2.36162V2.63838C35.8616 3.66653 35.0281 4.5 34 4.5C17.4315 4.5 4 17.9315 4 34.5C4 35.5284 3.16632 36.3621 2.13792 36.3621H1.86208C0.833681 36.3621 0 35.5284 0 34.5Z" fill="#F5F8FF"/>
<path d="M35.8616 102.362C35.8616 101.333 35.0281 100.5 34 100.5C17.4315 100.5 4 87.0685 4 70.5C4 69.4716 3.16633 68.6379 2.13794 68.6379H1.86206C0.833673 68.6379 0 69.4716 0 70.5C0 89.2777 15.2223 104.5 34 104.5C35.0281 104.5 35.8616 103.667 35.8616 102.638V102.362Z" fill="#F5F8FF"/>
<path d="M68.1375 102.637C68.1375 103.666 68.9714 104.5 70 104.5C88.7777 104.5 104 89.2777 104 70.5C104 69.4716 103.166 68.6379 102.138 68.6379H101.862C100.834 68.6379 100 69.4716 100 70.5C100 87.0685 86.5685 100.5 70 100.5C68.9714 100.5 68.1375 101.334 68.1375 102.363V102.637Z" fill="#F5F8FF"/>
<path d="M70 4.5C68.9714 4.5 68.1375 3.66612 68.1375 2.63748V2.36252C68.1375 1.33388 68.9714 0.5 70 0.5C88.7777 0.5 104 15.7223 104 34.5C104 35.5284 103.166 36.3621 102.138 36.3621H101.862C100.834 36.3621 100 35.5284 100 34.5C100 17.9315 86.5685 4.5 70 4.5Z" fill="#F5F8FF"/>
<path d="M52 24.5L52 52.5" stroke="#F5F8FF" stroke-width="4" stroke-linecap="round"/>
<path d="M52 52.5L66.1421 66.6421" stroke="#F5F8FF" stroke-width="4" stroke-linecap="round"/>
</svg>
