<svg width="104" height="104" viewBox="0 0 104 104" fill="none" xmlns="http://www.w3.org/2000/svg">
<path d="M0 34C0 15.2223 15.2223 0 34 0C35.0281 0 35.8616 0.833475 35.8616 1.86162V2.13838C35.8616 3.16653 35.0281 4 34 4C17.4315 4 4 17.4315 4 34C4 35.0284 3.16632 35.8621 2.13792 35.8621H1.86208C0.833681 35.8621 0 35.0284 0 34Z" fill="#F5F8FF"/>
<path d="M35.8616 101.862C35.8616 100.833 35.0281 100 34 100C17.4315 100 4 86.5685 4 70C4 68.9716 3.16633 68.1379 2.13794 68.1379H1.86206C0.833673 68.1379 0 68.9716 0 70C0 88.7777 15.2223 104 34 104C35.0281 104 35.8616 103.167 35.8616 102.138V101.862Z" fill="#F5F8FF"/>
<path d="M68.1375 102.137C68.1375 103.166 68.9714 104 70 104C88.7777 104 104 88.7777 104 70C104 68.9716 103.166 68.1379 102.138 68.1379H101.862C100.834 68.1379 100 68.9716 100 70C100 86.5685 86.5685 100 70 100C68.9714 100 68.1375 100.834 68.1375 101.863V102.137Z" fill="#F5F8FF"/>
<path d="M70 4C68.9714 4 68.1375 3.16612 68.1375 2.13748V1.86252C68.1375 0.833878 68.9714 0 70 0C88.7777 0 104 15.2223 104 34C104 35.0284 103.166 35.8621 102.138 35.8621H101.862C100.834 35.8621 100 35.0284 100 34C100 17.4315 86.5685 4 70 4Z" fill="#F5F8FF"/>
<path d="M36.3203 33.5L18.9998 43.5" stroke="#F5F8FF" stroke-width="4" stroke-linecap="round"/>
<path d="M66.7847 33.5L84.1052 43.5" stroke="#F5F8FF" stroke-width="4" stroke-linecap="round"/>
<path d="M38 71C38 71 46.4207 68 52 68C57.5793 68 66 71 66 71" stroke="#F5F8FF" stroke-width="4" stroke-linecap="round"/>
</svg>
