<svg width="18" height="18" viewBox="0 0 18 18" fill="none" xmlns="http://www.w3.org/2000/svg">
<path d="M8.25 10.5H9.75C10.1478 10.5 10.5294 10.342 10.8107 10.0607C11.092 9.77936 11.25 9.39782 11.25 9C11.25 8.60218 11.092 8.22064 10.8107 7.93934C10.5294 7.65804 10.1478 7.5 9.75 7.5H7.5C7.05 7.5 6.675 7.65 6.45 7.95L2.25 12" stroke="#2E3238" stroke-width="1.5" stroke-linecap="round" stroke-linejoin="round"/>
<path d="M5.25 15L6.45 13.95C6.675 13.65 7.05 13.5 7.5 13.5H10.5C11.325 13.5 12.075 13.2 12.6 12.6L16.05 9.29996C16.3394 9.02646 16.5083 8.64918 16.5196 8.25114C16.5308 7.85309 16.3835 7.46688 16.11 7.17746C15.8365 6.88804 15.4592 6.71913 15.0612 6.70788C14.6631 6.69662 14.2769 6.84396 13.9875 7.11746L10.8375 10.0425" stroke="#2E3238" stroke-width="1.5" stroke-linecap="round" stroke-linejoin="round"/>
<path d="M1.5 11.25L6 15.75" stroke="#2E3238" stroke-width="1.5" stroke-linecap="round" stroke-linejoin="round"/>
<path d="M14.6254 6.375C15.1504 5.85 15.7504 5.175 15.7504 4.35C15.8028 3.8917 15.6989 3.42912 15.4556 3.03723C15.2122 2.64534 14.8437 2.34711 14.4096 2.19086C13.9756 2.03461 13.5016 2.0295 13.0643 2.17636C12.627 2.32322 12.2521 2.61345 12.0004 3C11.7326 2.64344 11.3576 2.38209 10.9304 2.25434C10.5032 2.12658 10.0463 2.13914 9.62682 2.29017C9.20729 2.4412 8.84722 2.72275 8.59948 3.09348C8.35174 3.46422 8.22938 3.90461 8.25036 4.35C8.25036 5.25 8.85036 5.85 9.37536 6.45L12.0004 9L14.6254 6.375Z" stroke="#2E3238" stroke-width="1.5" stroke-linecap="round" stroke-linejoin="round"/>
</svg>
