<svg width="22" height="23" viewBox="0 0 22 23" fill="none" xmlns="http://www.w3.org/2000/svg">
<path d="M5.22472 19.7501C5.10434 19.9607 4.94365 20.1456 4.75182 20.2942C4.55999 20.4427 4.34077 20.552 4.10669 20.6159C3.63394 20.7448 3.12934 20.6807 2.70389 20.4376C2.27844 20.1944 1.96699 19.7923 1.83806 19.3195C1.70912 18.8468 1.77327 18.3422 2.01639 17.9167L9.89972 5.08339C10.6291 3.81919 11.8307 2.8965 13.2404 2.5183C14.65 2.14011 16.1522 2.33738 17.4164 3.06672C18.6806 3.79607 19.6033 4.99774 19.9815 6.40739C20.3597 7.81704 20.1624 9.31919 19.4331 10.5834C19.3136 10.7936 19.1537 10.978 18.9626 11.1262C18.7715 11.2743 18.553 11.3832 18.3197 11.4465C18.0863 11.5099 17.8428 11.5265 17.603 11.4953C17.3632 11.4641 17.132 11.3858 16.9226 11.265C16.7132 11.1441 16.5298 10.9829 16.383 10.7909C16.2361 10.5988 16.1287 10.3796 16.0669 10.1459C16.0051 9.91211 15.9901 9.66845 16.0229 9.42889C16.0556 9.18934 16.1354 8.95864 16.2577 8.75006C16.38 8.54148 16.4598 8.31077 16.4926 8.07122C16.5253 7.83167 16.5104 7.588 16.4486 7.35426C16.3868 7.12051 16.2793 6.90129 16.1325 6.70923C15.9856 6.51717 15.8022 6.35605 15.5928 6.23516C15.3834 6.11426 15.1522 6.03598 14.9124 6.00482C14.6727 5.97365 14.4291 5.99022 14.1958 6.05357C13.9625 6.11692 13.744 6.2258 13.5529 6.37393C13.3618 6.52207 13.2019 6.70654 13.0824 6.91672L5.22472 19.7501Z" stroke="#F5F8FF" stroke-width="1.83333" stroke-linecap="round" stroke-linejoin="round"/>
<path d="M16.2708 6.91665L13.75 2.42499" stroke="#F5F8FF" stroke-width="1.83333" stroke-linecap="round" stroke-linejoin="round"/>
<path d="M9.9917 4.90002L11.9167 8.75002" stroke="#F5F8FF" stroke-width="1.83333" stroke-linecap="round" stroke-linejoin="round"/>
<path d="M7.2417 9.3916L9.07503 13.4249" stroke="#F5F8FF" stroke-width="1.83333" stroke-linecap="round" stroke-linejoin="round"/>
<path d="M4.4917 13.975L6.4167 17.825" stroke="#F5F8FF" stroke-width="1.83333" stroke-linecap="round" stroke-linejoin="round"/>
</svg>
