<svg width="22" height="23" viewBox="0 0 22 23" fill="none" xmlns="http://www.w3.org/2000/svg">
<path d="M5.22496 19.7501C5.10459 19.9607 4.94389 20.1456 4.75206 20.2942C4.56023 20.4427 4.34102 20.552 4.10693 20.6159C3.63419 20.7448 3.12958 20.6807 2.70413 20.4376C2.27868 20.1944 1.96723 19.7923 1.8383 19.3195C1.70937 18.8468 1.77352 18.3422 2.01663 17.9167L9.89997 5.08339C10.6293 3.81919 11.831 2.8965 13.2406 2.5183C14.6503 2.14011 16.1524 2.33738 17.4166 3.06672C18.6808 3.79607 19.6035 4.99774 19.9817 6.40739C20.3599 7.81704 20.1626 9.31919 19.4333 10.5834C19.3138 10.7936 19.1539 10.978 18.9628 11.1262C18.7717 11.2743 18.5532 11.3832 18.3199 11.4465C18.0866 11.5099 17.843 11.5265 17.6032 11.4953C17.3635 11.4641 17.1322 11.3858 16.9229 11.265C16.7135 11.1441 16.5301 10.9829 16.3832 10.7909C16.2363 10.5988 16.1289 10.3796 16.0671 10.1459C16.0053 9.91211 15.9904 9.66845 16.0231 9.42889C16.0559 9.18934 16.1357 8.95864 16.258 8.75006C16.3802 8.54148 16.4601 8.31077 16.4928 8.07122C16.5256 7.83167 16.5106 7.588 16.4488 7.35426C16.387 7.12051 16.2796 6.90129 16.1327 6.70923C15.9859 6.51717 15.8025 6.35605 15.5931 6.23516C15.3837 6.11426 15.1524 6.03598 14.9127 6.00482C14.6729 5.97365 14.4294 5.99022 14.196 6.05357C13.9627 6.11692 13.7442 6.2258 13.5531 6.37393C13.362 6.52207 13.2021 6.70654 13.0826 6.91672L5.22496 19.7501Z" stroke="#E31718" stroke-width="1.83333" stroke-linecap="round" stroke-linejoin="round"/>
<path d="M16.2708 6.91659L13.75 2.42493" stroke="#E31718" stroke-width="1.83333" stroke-linecap="round" stroke-linejoin="round"/>
<path d="M9.9917 4.90002L11.9167 8.75002" stroke="#E31718" stroke-width="1.83333" stroke-linecap="round" stroke-linejoin="round"/>
<path d="M7.2417 9.3916L9.07503 13.4249" stroke="#E31718" stroke-width="1.83333" stroke-linecap="round" stroke-linejoin="round"/>
<path d="M4.4917 13.975L6.4167 17.825" stroke="#E31718" stroke-width="1.83333" stroke-linecap="round" stroke-linejoin="round"/>
</svg>
